<svg width="152" height="20" viewBox="0 0 152 20" fill="none" xmlns="http://www.w3.org/2000/svg">
<path d="M89.7164 15.1214C90.494 15.3874 91.3125 15.5102 92.1719 15.5102C93.502 15.5102 94.5455 15.2441 95.2822 14.7121C96.0188 14.1801 96.3872 13.4844 96.3872 12.584C96.3872 11.9292 96.203 11.3972 95.8552 11.0084C95.4868 10.6401 95.0571 10.3536 94.5456 10.1899C94.034 10.0262 93.3587 9.8625 92.5402 9.69879C91.7831 9.55555 91.1897 9.41232 90.7804 9.28954C90.3712 9.16677 90.0233 8.96215 89.7369 8.69613C89.4504 8.43011 89.3072 8.06179 89.3072 7.57069C89.3072 6.97727 89.5527 6.48616 90.0643 6.11786C90.5554 5.74952 91.3125 5.56538 92.3151 5.56538C92.8881 5.56538 93.461 5.64722 94.034 5.81092C94.5865 5.97462 95.0776 6.22018 95.5278 6.52712L95.9984 5.70862C95.5687 5.40168 95.0162 5.15614 94.3614 4.95151C93.6862 4.76735 93.0109 4.66504 92.3356 4.66504C91.026 4.66504 90.0233 4.95152 89.3276 5.504C88.6319 6.05647 88.2841 6.7522 88.2841 7.59116C88.2841 8.28689 88.4682 8.83937 88.8365 9.22816C89.2049 9.63741 89.6346 9.92389 90.1666 10.0876C90.6782 10.2717 91.3534 10.4354 92.2129 10.5787C92.929 10.7219 93.502 10.8447 93.9113 10.9675C94.3205 11.0903 94.6479 11.2949 94.9344 11.5404C95.2209 11.8065 95.3641 12.1543 95.3641 12.6045C95.3641 13.2388 95.0981 13.7299 94.5865 14.0778C94.0749 14.4461 93.2769 14.6098 92.2129 14.6098C91.4558 14.6098 90.7396 14.487 90.0438 14.2415C89.3481 13.9959 88.7956 13.689 88.3659 13.3206L87.8953 14.1391C88.325 14.5484 88.9388 14.8758 89.7164 15.1214Z" fill="#DF2C28"/>
<path fill-rule="evenodd" clip-rule="evenodd" d="M95.8552 11.0085C96.2031 11.3973 96.3872 11.9293 96.3872 12.5841C96.3872 13.4844 96.0189 14.1802 95.2823 14.7122C94.5456 15.2442 93.502 15.5102 92.172 15.5102C91.3126 15.5102 90.4941 15.3875 89.7165 15.1215C88.9389 14.8759 88.325 14.5485 87.8953 14.1392L88.366 13.3207C88.4514 13.394 88.5417 13.4648 88.6371 13.5332C89.0211 13.8087 89.4865 14.0448 90.0439 14.2415C90.7396 14.4871 91.4558 14.6099 92.2129 14.6099C93.2769 14.6099 94.075 14.4462 94.5866 14.0779C95.0981 13.73 95.3641 13.2389 95.3641 12.6046C95.3641 12.1544 95.2209 11.8065 94.9344 11.5405C94.648 11.295 94.3206 11.0903 93.9113 10.9676C93.5021 10.8448 92.9291 10.722 92.2129 10.5788C91.3535 10.4355 90.6782 10.2718 90.1667 10.0877C89.6346 9.92398 89.2049 9.6375 88.8366 9.22825C88.4683 8.83946 88.2841 8.28698 88.2841 7.59125C88.2841 6.75229 88.632 6.05656 89.3277 5.50409C90.0234 4.95161 91.0261 4.66513 92.3357 4.66513C93.011 4.66513 93.6862 4.76744 94.3615 4.9516C95.0163 5.15622 95.5688 5.40177 95.9985 5.70871L95.5278 6.5272C95.4339 6.46314 95.3381 6.40174 95.2404 6.34321C94.8699 6.12132 94.4712 5.94054 94.0341 5.81101C93.4611 5.64731 92.8882 5.56547 92.3152 5.56547C91.3125 5.56547 90.5554 5.74961 90.0643 6.11795C89.5528 6.48625 89.3072 6.97736 89.3072 7.57077C89.3072 8.06188 89.4505 8.4302 89.7369 8.69622C90.0234 8.96224 90.3713 9.16685 90.7805 9.28963C91.1898 9.41241 91.7832 9.55564 92.5403 9.69888C93.3588 9.86259 94.0341 10.0263 94.5456 10.19C95.0572 10.3537 95.4869 10.6402 95.8552 11.0085ZM93.9388 6.13835C93.3956 5.98331 92.8547 5.90638 92.3152 5.90638C91.3425 5.90638 90.6735 6.08715 90.2689 6.39067L90.2635 6.39466C89.8398 6.69974 89.6481 7.08843 89.6481 7.57077C89.6481 7.99052 89.7674 8.25927 89.9689 8.4464C90.2174 8.67719 90.5195 8.85542 90.8785 8.9631C91.2729 9.08143 91.854 9.22209 92.6037 9.36391L92.6071 9.36457C93.4311 9.52939 94.1205 9.69601 94.6495 9.8653C95.2207 10.0481 95.6959 10.367 96.0963 10.7674L96.103 10.7741L96.1093 10.7812C96.5246 11.2453 96.7282 11.8645 96.7282 12.5841C96.7282 13.5981 96.3038 14.3949 95.4819 14.9886C94.6654 15.5782 93.5413 15.8512 92.172 15.8512C91.2811 15.8512 90.4261 15.724 89.61 15.4453C88.8039 15.1903 88.1391 14.8422 87.6602 14.3861L87.4663 14.2014L88.2755 12.7942L88.5878 13.0619C88.9787 13.3969 89.4918 13.6851 90.1574 13.9201C90.8162 14.1526 91.494 14.269 92.2129 14.269C93.2581 14.269 93.9655 14.105 94.3874 13.8012L94.3948 13.7958C94.8137 13.511 95.0232 13.1252 95.0232 12.6046C95.0232 12.2389 94.9121 11.9873 94.7072 11.7948C94.45 11.5752 94.1652 11.3996 93.8134 11.2941C93.4229 11.1769 92.8672 11.0573 92.1514 10.9141C91.2879 10.77 90.5948 10.6033 90.0587 10.4111C89.4687 10.2281 88.9904 9.90775 88.5861 9.45948C88.1428 8.98956 87.9432 8.34393 87.9432 7.59125C87.9432 6.64142 88.3441 5.84987 89.1157 5.23712C89.893 4.61985 90.9816 4.32422 92.3357 4.32422C93.0456 4.32422 93.7512 4.4318 94.4512 4.6227L94.4632 4.62599C95.137 4.83654 95.7267 5.09562 96.1966 5.4313L96.448 5.61085L95.6399 7.01621L95.3358 6.80888C94.9121 6.52002 94.4533 6.29099 93.9388 6.13835Z" fill="#DF2C28"/>
<path d="M77.0802 15.1214C77.8578 15.3874 78.6763 15.5102 79.5357 15.5102C80.8657 15.5102 81.9093 15.2441 82.646 14.7121C83.3826 14.1801 83.7509 13.4844 83.7509 12.584C83.7509 11.9292 83.5668 11.3972 83.2189 11.0084C82.8506 10.6401 82.4209 10.3536 81.9093 10.1899C81.3978 10.0262 80.7225 9.8625 79.904 9.69879C79.1469 9.55555 78.5535 9.41232 78.1442 9.28954C77.735 9.16677 77.3871 8.96215 77.1006 8.69613C76.8142 8.43011 76.6709 8.06179 76.6709 7.57069C76.6709 6.97727 76.9165 6.48616 77.428 6.11786C77.9191 5.74952 78.6762 5.56538 79.6789 5.56538C80.2519 5.56538 80.8248 5.64722 81.3978 5.81092C81.9502 5.97462 82.4414 6.22018 82.8915 6.52712L83.3622 5.70862C82.9325 5.40168 82.38 5.15614 81.7252 4.95151C81.0499 4.76735 80.3747 4.66504 79.6994 4.66504C78.3898 4.66504 77.3871 4.95152 76.6914 5.504C75.9957 6.05647 75.6478 6.7522 75.6478 7.59116C75.6478 8.28689 75.832 8.83937 76.2003 9.22816C76.5686 9.63741 76.9984 9.92389 77.5304 10.0876C78.0419 10.2717 78.7172 10.4354 79.5766 10.5787C80.2928 10.7219 80.8658 10.8447 81.275 10.9675C81.6843 11.0903 82.0117 11.2949 82.2981 11.5404C82.5846 11.8065 82.7279 12.1543 82.7279 12.6045C82.7279 13.2388 82.4618 13.7299 81.9503 14.0778C81.4387 14.4461 80.6407 14.6098 79.5766 14.6098C78.8195 14.6098 78.1033 14.487 77.4076 14.2415C76.7119 13.9959 76.1594 13.689 75.7297 13.3206L75.259 14.1391C75.6887 14.5484 76.3026 14.8758 77.0802 15.1214Z" fill="#DF2C28"/>
<path fill-rule="evenodd" clip-rule="evenodd" d="M83.219 11.0085C83.5668 11.3973 83.751 11.9293 83.751 12.5841C83.751 13.4844 83.3827 14.1802 82.646 14.7122C81.9094 15.2442 80.8658 15.5102 79.5357 15.5102C78.6763 15.5102 77.8578 15.3875 77.0802 15.1215C76.3026 14.8759 75.6888 14.5485 75.2591 14.1392L75.7297 13.3207C75.8152 13.394 75.9055 13.4648 76.0008 13.5332C76.3849 13.8087 76.8503 14.0448 77.4077 14.2415C78.1034 14.4871 78.8196 14.6099 79.5767 14.6099C80.6407 14.6099 81.4388 14.4462 81.9503 14.0779C82.4619 13.73 82.7279 13.2389 82.7279 12.6046C82.7279 12.1544 82.5847 11.8065 82.2982 11.5405C82.0117 11.295 81.6843 11.0903 81.2751 10.9676C80.8658 10.8448 80.2929 10.722 79.5767 10.5788C78.7173 10.4355 78.042 10.2718 77.5304 10.0877C76.9984 9.92398 76.5687 9.6375 76.2004 9.22825C75.832 8.83946 75.6479 8.28698 75.6479 7.59125C75.6479 6.75229 75.9957 6.05656 76.6915 5.50409C77.3872 4.95161 78.3898 4.66513 79.6994 4.66513C80.3747 4.66513 81.05 4.76744 81.7252 4.9516C82.38 5.15622 82.9325 5.40177 83.3622 5.70871L82.8916 6.5272C82.7976 6.46314 82.7019 6.40174 82.6042 6.34321C82.2337 6.12132 81.835 5.94054 81.3978 5.81101C80.8249 5.64731 80.2519 5.56547 79.679 5.56547C78.6763 5.56547 77.9192 5.74961 77.4281 6.11795C76.9165 6.48625 76.671 6.97736 76.671 7.57077C76.671 8.06188 76.8142 8.4302 77.1007 8.69622C77.3872 8.96224 77.735 9.16686 78.1443 9.28963C78.5535 9.41241 79.1469 9.55564 79.904 9.69888C80.7225 9.86259 81.3978 10.0263 81.9094 10.19C82.4209 10.3537 82.8507 10.6402 83.219 11.0085ZM81.3026 6.13834C80.7594 5.9833 80.2185 5.90638 79.679 5.90638C78.7062 5.90638 78.0373 6.08715 77.6326 6.39067L77.6273 6.39466C77.2036 6.69974 77.0119 7.08843 77.0119 7.57077C77.0119 7.99052 77.1311 8.25927 77.3327 8.4464C77.5812 8.6772 77.8833 8.85542 78.2422 8.9631C78.6367 9.08143 79.2178 9.22209 79.9674 9.36391L79.9709 9.36457C80.7949 9.52939 81.4843 9.69601 82.0133 9.8653C82.5845 10.0481 83.0596 10.367 83.4601 10.7674L83.4667 10.7741L83.473 10.7812C83.8884 11.2453 84.0919 11.8645 84.0919 12.5841C84.0919 13.5981 83.6676 14.3949 82.8456 14.9886C82.0292 15.5782 80.905 15.8512 79.5357 15.8512C78.6448 15.8512 77.7898 15.724 76.9737 15.4453C76.1677 15.1903 75.5029 14.8422 75.024 14.3861L74.8301 14.2014L75.6393 12.7942L75.9516 13.0619C76.3425 13.3969 76.8555 13.6851 77.5211 13.9201C78.1799 14.1526 78.8577 14.269 79.5767 14.269C80.6219 14.269 81.3292 14.105 81.7511 13.8012L81.7586 13.7958C82.1774 13.511 82.387 13.1252 82.387 12.6046C82.387 12.2389 82.2759 11.9873 82.071 11.7948C81.8137 11.5752 81.5289 11.3996 81.1771 11.2941C80.7866 11.177 80.231 11.0573 79.5152 10.9141C78.6517 10.77 77.9585 10.6033 77.4224 10.4111C76.8324 10.2281 76.3542 9.90775 75.9498 9.45947C75.5065 8.98956 75.307 8.34392 75.307 7.59125C75.307 6.64143 75.7078 5.84987 76.4795 5.23712C77.2567 4.61985 78.3453 4.32422 79.6994 4.32422C80.4094 4.32422 81.1149 4.4318 81.8149 4.6227L81.827 4.62599C82.5007 4.83654 83.0904 5.09562 83.5604 5.4313L83.8118 5.61085L83.0037 7.01621L82.6996 6.80888C82.2759 6.52002 81.8171 6.29099 81.3026 6.13834Z" fill="#DF2C28"/>
<path d="M136.804 5.29891C136.108 5.70816 135.597 6.30158 135.269 7.07914V4.7464H134.287V15.4277H135.31V9.86203C135.31 8.55243 135.638 7.50885 136.313 6.7722C136.968 6.03556 137.909 5.64676 139.096 5.64676L139.341 5.66721V4.66455C138.339 4.66455 137.5 4.88967 136.804 5.29891Z" fill="#DF2C28"/>
<path fill-rule="evenodd" clip-rule="evenodd" d="M136.631 5.00516C137.386 4.56125 138.286 4.32373 139.341 4.32373H139.682V6.03779L139.082 5.98778C137.981 5.99079 137.144 6.35048 136.568 6.99878L136.564 7.00268C135.965 7.65666 135.651 8.60649 135.651 9.86212V15.7687H133.946V4.40558H135.61V5.86375C135.896 5.52418 136.236 5.23738 136.631 5.00516ZM135.61 6.43444C135.48 6.63309 135.367 6.84801 135.269 7.07922V4.74649H134.287V15.4278H135.31V9.86212C135.31 8.55252 135.638 7.50893 136.313 6.77229C136.95 6.05549 137.859 5.66804 139.001 5.64769C139.032 5.64713 139.064 5.64685 139.096 5.64685L139.341 5.6673V4.66464C139.226 4.66464 139.112 4.66764 139.001 4.67359C138.147 4.7191 137.419 4.93702 136.804 5.299C136.315 5.58656 135.917 5.96504 135.61 6.43444Z" fill="#DF2C28"/>
<path d="M68.6941 5.68621C67.9779 5.01094 66.9548 4.66309 65.6452 4.66309C64.8267 4.66309 64.0286 4.80633 63.292 5.07234C62.5349 5.33836 61.9005 5.70667 61.3685 6.17732L61.88 6.91397C62.3302 6.50472 62.8623 6.17733 63.517 5.93176C64.1718 5.68621 64.8471 5.56342 65.5633 5.56342C66.5864 5.56342 67.3845 5.82943 67.9165 6.34101C68.4485 6.87303 68.735 7.63016 68.735 8.61234V9.47175H65.0722C63.6808 9.47175 62.6576 9.75822 62.0233 10.3107C61.389 10.8632 61.082 11.5794 61.082 12.4593C61.082 13.3801 61.4094 14.1167 62.1052 14.6692C62.8009 15.2422 63.7422 15.5082 64.929 15.5082C65.8293 15.5082 66.6274 15.3445 67.2822 14.9966C67.937 14.6488 68.4281 14.1577 68.776 13.5233V15.4264H69.7582V8.65331C69.7582 7.34371 69.3898 6.36149 68.6941 5.68621ZM67.3231 14.0555C66.7092 14.4647 65.9521 14.6694 65.0722 14.6694C64.131 14.6694 63.3943 14.4852 62.8827 14.0759C62.3507 13.6667 62.1052 13.1142 62.1052 12.4185C62.1052 11.7637 62.3302 11.2316 62.8009 10.8429C63.2715 10.4745 64.0286 10.2699 65.0927 10.2699H68.7351V12.2753C68.4077 13.0528 67.937 13.6462 67.3231 14.0555Z" fill="#DF2C28"/>
<path fill-rule="evenodd" clip-rule="evenodd" d="M68.9316 5.44168C69.7108 6.19798 70.0992 7.27895 70.0992 8.6534V15.7674H68.4351V14.5583C68.1521 14.8492 67.8219 15.0961 67.4422 15.2978C66.7254 15.6786 65.8687 15.8492 64.9291 15.8492C63.6952 15.8492 62.6675 15.5729 61.8909 14.9344C61.1076 14.3112 60.7412 13.4728 60.7412 12.4594C60.7412 11.4891 61.0848 10.6762 61.7995 10.0537C62.5244 9.42231 63.6466 9.13093 65.0723 9.13093H68.3942V8.61243C68.3942 7.70009 68.1304 7.03842 67.6779 6.58452C67.2298 6.15516 66.53 5.90441 65.5634 5.90441C64.8877 5.90441 64.253 6.01999 63.6368 6.25105C63.0202 6.48229 62.5259 6.78769 62.1094 7.16631L61.8218 7.42778L60.9157 6.12291L61.1427 5.92208C61.7102 5.41998 62.3834 5.03053 63.1776 4.75129C63.9509 4.47223 64.7876 4.32227 65.6452 4.32227C67.014 4.32227 68.1309 4.68668 68.928 5.43826L68.9316 5.44168ZM67.9166 6.34109C68.4486 6.87311 68.7351 7.63025 68.7351 8.61243V9.47184H65.0723C63.6808 9.47184 62.6577 9.75831 62.0234 10.3108C61.3891 10.8633 61.0821 11.5795 61.0821 12.4594C61.0821 13.3802 61.4095 14.1168 62.1052 14.6693C62.801 15.2423 63.7422 15.5083 64.9291 15.5083C65.8294 15.5083 66.6275 15.3446 67.2823 14.9967C67.7464 14.7502 68.1282 14.4317 68.4351 14.0412C68.5613 13.8808 68.6747 13.7082 68.776 13.5234V15.4265H69.7583V8.6534C69.7583 7.3438 69.3899 6.36158 68.6942 5.6863C67.978 5.01103 66.9548 4.66317 65.6452 4.66317C64.8267 4.66317 64.0287 4.80642 63.292 5.07243C62.5349 5.33845 61.9006 5.70676 61.3686 6.17741L61.8801 6.91406C61.9643 6.83749 62.0514 6.7638 62.1416 6.69296C62.5337 6.38517 62.9848 6.13147 63.5171 5.93185C64.1719 5.6863 64.8472 5.5635 65.5634 5.5635C66.5865 5.5635 67.3845 5.82952 67.9166 6.34109ZM62.8828 14.076C63.3944 14.4853 64.131 14.6694 65.0723 14.6694C65.9522 14.6694 66.7093 14.4648 67.3232 14.0556C67.9371 13.6463 68.4078 13.0529 68.7352 12.2753V10.27H65.0928C64.0287 10.27 63.2716 10.4746 62.801 10.843C62.3303 11.2317 62.1052 11.7638 62.1052 12.4186C62.1052 13.1143 62.3508 13.6668 62.8828 14.076ZM63.0146 11.1087C62.6353 11.4237 62.4462 11.8526 62.4462 12.4186C62.4462 13.0209 62.6519 13.4683 63.0907 13.8058L63.0958 13.8098C63.521 14.1499 64.167 14.3285 65.0723 14.3285C65.899 14.3285 66.5869 14.1367 67.1341 13.7719C67.6688 13.4154 68.0908 12.8989 68.3943 12.2053V10.6109H65.0928C64.0638 10.6109 63.3984 10.8103 63.0146 11.1087Z" fill="#DF2C28"/>
<path d="M120.207 14.812C121.025 15.2827 121.926 15.5077 122.949 15.5077C123.951 15.5077 124.852 15.2826 125.67 14.812C126.489 14.3618 127.123 13.707 127.594 12.8885C128.044 12.07 128.289 11.1287 128.289 10.0852C128.289 9.06204 128.044 8.12078 127.594 7.30227C127.123 6.48377 126.489 5.82898 125.67 5.35833C124.852 4.90816 123.951 4.6626 122.949 4.6626C121.926 4.6626 121.025 4.90815 120.207 5.35833C119.388 5.82898 118.754 6.48377 118.304 7.30227C117.833 8.12078 117.608 9.06204 117.608 10.0852C117.608 11.1287 117.833 12.07 118.304 12.8885C118.754 13.707 119.388 14.3618 120.207 14.812ZM125.138 14.014C124.483 14.4027 123.767 14.5869 122.949 14.5869C122.13 14.5869 121.393 14.4028 120.739 14.014C120.084 13.6456 119.572 13.1136 119.204 12.4179C118.836 11.7426 118.651 10.965 118.651 10.0851C118.651 9.22572 118.836 8.44813 119.204 7.7524C119.572 7.07713 120.084 6.54511 120.739 6.15631C121.393 5.78798 122.13 5.58335 122.949 5.58335C123.767 5.58335 124.483 5.78798 125.138 6.15631C125.793 6.54511 126.304 7.07713 126.673 7.7524C127.041 8.44813 127.246 9.22569 127.246 10.0851C127.246 10.965 127.041 11.7426 126.673 12.4179C126.304 13.1136 125.793 13.6456 125.138 14.014Z" fill="#DF2C28"/>
<path fill-rule="evenodd" clip-rule="evenodd" d="M127.594 12.8886C127.123 13.7071 126.489 14.3619 125.67 14.8121C124.852 15.2827 123.951 15.5078 122.949 15.5078C121.926 15.5078 121.025 15.2827 120.207 14.8121C119.388 14.3619 118.754 13.7071 118.304 12.8886C117.833 12.0701 117.608 11.1288 117.608 10.0853C117.608 9.06213 117.833 8.12086 118.304 7.30236C118.754 6.48386 119.388 5.82907 120.207 5.35842C121.025 4.90823 121.926 4.66269 122.949 4.66269C123.951 4.66269 124.852 4.90825 125.67 5.35842C126.489 5.82907 127.123 6.48386 127.594 7.30236C128.044 8.12086 128.289 9.06213 128.289 10.0853C128.289 11.1288 128.044 12.0701 127.594 12.8886ZM118.007 7.13524C118.486 6.26436 119.164 5.56469 120.037 5.06288L120.042 5.05965L120.042 5.05971C120.911 4.58217 121.867 4.32178 122.949 4.32178C124.01 4.32178 124.967 4.58251 125.835 5.0597L125.84 5.06283L125.84 5.06288C126.714 5.5654 127.39 6.26499 127.889 7.13243L127.893 7.13804L127.892 7.13807C128.371 8.00848 128.63 9.0065 128.63 10.0853C128.63 11.1838 128.371 12.182 127.892 13.0529L127.889 13.0586L127.889 13.0585C127.391 13.9246 126.715 14.626 125.837 15.1092C124.963 15.6112 124.004 15.8487 122.949 15.8487C121.874 15.8487 120.914 15.6115 120.04 15.1092C119.164 14.6267 118.485 13.9253 118.007 13.0557C117.503 12.1784 117.267 11.1776 117.267 10.0853C117.267 9.01265 117.503 8.01206 118.007 7.13524ZM124.971 13.7168L124.971 13.7169C125.566 13.3822 126.032 12.8993 126.372 12.2584L126.374 12.2547L126.374 12.2547C126.714 11.6314 126.905 10.9103 126.905 10.0852C126.905 9.28287 126.715 8.56061 126.373 7.91386C126.034 7.29385 125.567 6.80822 124.967 6.45157C124.363 6.11194 123.705 5.92435 122.949 5.92435C122.191 5.92435 121.513 6.11275 120.909 6.45157C120.31 6.80823 119.843 7.29386 119.504 7.91387C119.165 8.55558 118.992 9.27699 118.992 10.0852C118.992 10.9164 119.166 11.6363 119.503 12.2547L119.505 12.2584L119.505 12.2584C119.845 12.8993 120.311 13.3822 120.906 13.7169L120.913 13.7208L120.913 13.7209C121.508 14.0746 122.183 14.2461 122.949 14.2461C123.712 14.2461 124.367 14.0754 124.964 13.7209L124.971 13.7168ZM119.204 7.75249C119.572 7.07721 120.084 6.5452 120.739 6.1564C121.393 5.78806 122.13 5.58344 122.949 5.58344C123.767 5.58344 124.483 5.78806 125.138 6.1564C125.793 6.5452 126.304 7.07721 126.673 7.75249C127.041 8.44822 127.246 9.22578 127.246 10.0852C127.246 10.9651 127.041 11.7427 126.673 12.418C126.304 13.1137 125.793 13.6457 125.138 14.014C124.483 14.4028 123.767 14.587 122.949 14.587C122.13 14.587 121.394 14.4028 120.739 14.014C120.084 13.6457 119.572 13.1137 119.204 12.418C118.836 11.7427 118.652 10.9651 118.652 10.0852C118.652 9.22581 118.836 8.44822 119.204 7.75249Z" fill="#DF2C28"/>
<path d="M110.167 5.35833C109.349 4.90816 108.449 4.6626 107.466 4.6626C106.505 4.6626 105.645 4.90815 104.868 5.35833C104.09 5.80849 103.497 6.44286 103.087 7.26136V4.74445H102.105V19.3955H103.128V12.9907C103.538 13.7887 104.131 14.4026 104.909 14.8528C105.666 15.3029 106.525 15.5075 107.466 15.5075C108.449 15.5075 109.349 15.2825 110.167 14.8323C110.965 14.3821 111.6 13.7273 112.05 12.9088C112.5 12.0903 112.746 11.149 112.746 10.0849C112.746 9.04136 112.5 8.10009 112.05 7.28159C111.6 6.46309 110.965 5.82898 110.167 5.35833ZM109.615 14.014C108.96 14.4028 108.223 14.5869 107.405 14.5869C106.586 14.5869 105.85 14.4028 105.195 14.014C104.54 13.6456 104.029 13.1136 103.66 12.4179C103.292 11.7426 103.108 10.9651 103.108 10.0852C103.108 9.22575 103.292 8.44816 103.66 7.75243C104.029 7.07715 104.54 6.54514 105.195 6.15634C105.85 5.788 106.586 5.58338 107.405 5.58338C108.223 5.58338 108.96 5.788 109.615 6.15634C110.27 6.54514 110.781 7.07715 111.15 7.75243C111.518 8.44816 111.723 9.22572 111.723 10.0852C111.723 10.9651 111.518 11.7426 111.15 12.4179C110.781 13.1136 110.27 13.6456 109.615 14.014Z" fill="#DF2C28"/>
<path fill-rule="evenodd" clip-rule="evenodd" d="M110.341 5.06477C111.189 5.56479 111.868 6.24242 112.349 7.11739C112.828 7.98832 113.087 8.98645 113.087 10.085C113.087 11.2035 112.828 12.2017 112.349 13.0732C111.87 13.9444 111.191 14.6464 110.335 15.1293L110.332 15.1311C109.46 15.6104 108.503 15.8485 107.466 15.8485C106.475 15.8485 105.554 15.6327 104.736 15.1469C104.247 14.8634 103.824 14.5179 103.469 14.1068V19.7365H101.764V4.40363H103.428V6.12151C103.783 5.70085 104.206 5.34762 104.697 5.06339C105.525 4.58394 106.443 4.32178 107.466 4.32178C108.508 4.32178 109.465 4.58282 110.332 5.0597L110.341 5.06477ZM103.428 6.6829C103.805 6.13771 104.284 5.6962 104.868 5.35842C105.645 4.90823 106.505 4.66269 107.466 4.66269C108.449 4.66269 109.349 4.90825 110.168 5.35842C110.966 5.82907 111.6 6.46318 112.05 7.28168C112.5 8.10018 112.746 9.04145 112.746 10.085C112.746 11.1491 112.5 12.0904 112.05 12.9089C111.6 13.7274 110.966 14.3822 110.168 14.8324C109.349 15.2825 108.449 15.5076 107.466 15.5076C106.525 15.5076 105.666 15.303 104.909 14.8528C104.325 14.5151 103.845 14.0851 103.469 13.5543C103.344 13.3777 103.231 13.19 103.128 12.9908V19.3956H102.105V4.74454H103.088V7.26145C103.19 7.05712 103.303 6.86428 103.428 6.6829ZM109.448 13.7169C110.043 13.3822 110.509 12.8993 110.848 12.2585L110.85 12.2547C111.19 11.6314 111.382 10.9103 111.382 10.0853C111.382 9.2829 111.191 8.56064 110.849 7.91389C110.511 7.29388 110.044 6.80826 109.444 6.4516C108.841 6.11278 108.163 5.92438 107.405 5.92438C106.647 5.92438 105.969 6.11278 105.366 6.4516C104.766 6.80826 104.299 7.29389 103.961 7.9139C103.621 8.55561 103.449 9.27702 103.449 10.0853C103.449 10.9164 103.622 11.6364 103.96 12.2547L103.962 12.2585C104.301 12.8993 104.767 13.3822 105.362 13.7169L105.369 13.7209C105.965 14.0746 106.64 14.2461 107.405 14.2461C108.17 14.2461 108.845 14.0746 109.441 13.7209L109.448 13.7169ZM103.66 7.75252C104.029 7.07724 104.54 6.54523 105.195 6.15643C105.85 5.78809 106.587 5.58347 107.405 5.58347C108.224 5.58347 108.96 5.78809 109.615 6.15643C110.27 6.54523 110.781 7.07724 111.15 7.75252C111.518 8.44825 111.723 9.22581 111.723 10.0853C111.723 10.9652 111.518 11.7427 111.15 12.418C110.781 13.1137 110.27 13.6457 109.615 14.0141C108.96 14.4029 108.224 14.587 107.405 14.587C106.587 14.587 105.85 14.4029 105.195 14.0141C104.54 13.6457 104.029 13.1137 103.66 12.418C103.292 11.7427 103.108 10.9652 103.108 10.0853C103.108 9.22584 103.292 8.44825 103.66 7.75252Z" fill="#DF2C28"/>
<path d="M151 14.8678L150.57 14.1516C150.12 14.5609 149.568 14.745 148.913 14.745C148.258 14.745 147.746 14.5813 147.419 14.213C147.092 13.8447 146.928 13.3127 146.928 12.6169V5.74144H150.325V4.86154H146.928V2.52881H145.905V4.86154H143.94V5.74144H145.905V12.7191C145.905 13.6399 146.15 14.3561 146.662 14.8676C147.153 15.3792 147.869 15.6247 148.81 15.6247C149.22 15.6247 149.629 15.5633 150.018 15.4406C150.407 15.3178 150.734 15.1134 151 14.8678Z" fill="#DF2C28"/>
<path fill-rule="evenodd" clip-rule="evenodd" d="M151.435 14.9303L151.231 15.1184C150.932 15.3948 150.561 15.6265 150.121 15.7657C149.698 15.8993 149.254 15.9657 148.811 15.9657C147.813 15.9657 146.995 15.7048 146.418 15.1063C145.827 14.5129 145.564 13.6996 145.564 12.7191V6.08243H143.6V4.52072H145.564V2.18799H147.269V4.52072H150.666V6.08243H147.269V12.617C147.269 13.2634 147.421 13.7022 147.674 13.9866C147.91 14.2526 148.307 14.4042 148.913 14.4042C149.498 14.4042 149.964 14.242 150.341 13.8995L150.649 13.6197L151.435 14.9303ZM151 14.8679C150.734 15.1135 150.407 15.3179 150.018 15.4406C149.629 15.5634 149.22 15.6248 148.811 15.6248C147.869 15.6248 147.153 15.3793 146.662 14.8677C146.15 14.3562 145.905 13.64 145.905 12.7191V5.74153H143.941V4.86163H145.905V2.5289H146.928V4.86163H150.325V5.74153H146.928V12.617C146.928 13.3128 147.092 13.8448 147.419 14.2131C147.747 14.5814 148.258 14.7451 148.913 14.7451C149.442 14.7451 149.904 14.6249 150.3 14.363C150.394 14.3007 150.484 14.2303 150.57 14.1517L151 14.8679Z" fill="#DF2C28"/>
<path d="M54.593 2.39169C53.5699 1.53228 52.158 1.10254 50.3572 1.10254H45.2209V2.04381H50.3572C51.8714 2.04381 53.0378 2.39166 53.8563 3.06694C54.6543 3.74222 55.0636 4.70394 55.0636 5.93169C55.0636 7.1799 54.6543 8.14165 53.8563 8.79644C53.0378 9.47171 51.8715 9.79911 50.3572 9.79911H45.2209V15.4263H46.2645V10.7404H50.357C52.1577 10.7404 53.5698 10.3312 54.5929 9.47175C55.616 8.61234 56.1276 7.44595 56.1276 5.93172C56.1276 4.43794 55.6162 3.25114 54.593 2.39169Z" fill="#DF2C28"/>
<path fill-rule="evenodd" clip-rule="evenodd" d="M44.8801 0.761719H50.3573C52.2103 0.761719 53.7094 1.20422 54.8124 2.13074L54.5931 2.39178C53.57 1.53237 52.1581 1.10263 50.3573 1.10263H45.221V2.0439H50.3573C51.8715 2.0439 53.0379 2.39175 53.8564 3.06703C54.6544 3.7423 55.0637 4.70403 55.0637 5.93178C55.0637 7.17999 54.6544 8.14174 53.8564 8.79653C53.0379 9.4718 51.8715 9.7992 50.3573 9.7992H45.221V15.4264H46.2646V10.7405H50.3571C52.1578 10.7405 53.5699 10.3313 54.593 9.47184C55.6161 8.61243 56.1277 7.44604 56.1277 5.93181C56.1277 4.43803 55.6163 3.25123 54.5931 2.39178L54.8124 2.13074C55.9229 3.06359 56.4686 4.35156 56.4686 5.93181C56.4686 7.53337 55.9222 8.80056 54.8122 9.73288C53.7072 10.6611 52.2063 11.0814 50.3571 11.0814H46.6055V15.7673H44.8801V9.45829H50.3573C51.8278 9.45829 52.9047 9.13975 53.6394 8.53356C54.3429 7.95636 54.7228 7.10002 54.7228 5.93178C54.7228 4.78723 54.3455 3.92833 53.6378 3.32865C52.9006 2.72127 51.8221 2.38481 50.3573 2.38481H44.8801V0.761719Z" fill="#DF2C28"/>
<path d="M29.9088 10.415C30.9729 10.108 31.8119 9.57601 32.3848 8.79842C32.9578 8.02083 33.2647 7.07957 33.2647 5.93367C33.2647 4.4399 32.7531 3.25309 31.73 2.39365C30.7069 1.53423 29.295 1.10449 27.4942 1.10449H22.3579V2.04577H27.4942C29.0084 2.04577 30.1747 2.39362 30.9933 3.06889C31.7913 3.74417 32.2006 4.70589 32.2006 5.93364C32.2006 7.18185 31.7913 8.14361 30.9933 8.81886C30.1748 9.49413 29.0084 9.82152 27.4942 9.82152H22.3579V15.4281H23.4015V10.7422H27.494C27.9033 10.7422 28.3739 10.7217 28.8855 10.6399L32.3028 15.4282H33.4896L29.9088 10.415Z" fill="#171717"/>
<path d="M14.9965 11.8452C15.5899 10.7812 15.8969 9.59435 15.8969 8.26428C15.8969 6.89331 15.5695 5.64507 14.9147 4.54C14.2599 3.45547 13.38 2.57561 12.2545 1.94127C11.1086 1.3274 9.83995 1 8.44842 1C7.0365 1 5.76784 1.3274 4.64231 1.96173C3.49642 2.59606 2.61652 3.4555 1.96173 4.56045C1.30694 5.66543 1 6.91364 1 8.26413C1 9.5942 1.28648 10.781 1.8799 11.8451C2.47333 12.9091 3.29182 13.7686 4.35586 14.4233C5.39944 15.0781 6.58628 15.426 7.91619 15.5079V18.1885H8.98023V15.5079C10.2898 15.426 11.4562 15.0782 12.5203 14.4233C13.5843 13.7686 14.4031 12.9093 14.9965 11.8452ZM11.9476 13.605C11.0472 14.178 10.0446 14.4849 8.93963 14.5463V10.8629H7.93695V14.5463C6.81151 14.4849 5.80885 14.1575 4.90849 13.5845C4.00813 13.0116 3.3124 12.2749 2.80084 11.3337C2.28928 10.4129 2.04374 9.38972 2.04374 8.26428C2.04374 7.09793 2.30975 6.03387 2.88269 5.07218C3.43517 4.11045 4.19231 3.35332 5.17449 2.80084C6.1567 2.24837 7.24119 1.96188 8.44842 1.96188C9.63526 1.96188 10.7198 2.24836 11.7021 2.80084C12.6638 3.35332 13.4209 4.11045 13.9939 5.07218C14.5463 6.0339 14.8328 7.09796 14.8328 8.26428C14.8328 9.38972 14.5668 10.4129 14.0552 11.3541C13.5437 12.2954 12.848 13.032 11.9476 13.605Z" fill="#171717"/>
<path fill-rule="evenodd" clip-rule="evenodd" d="M32.3028 15.4283L28.8856 10.64C28.374 10.7218 27.9033 10.7423 27.4941 10.7423H23.4016V15.4282H22.358V9.82161H27.4942C29.0085 9.82161 30.1749 9.49422 30.9934 8.81894C31.7914 8.1437 32.2007 7.18194 32.2007 5.93373C32.2007 4.70598 31.7914 3.74426 30.9934 3.06898C30.1748 2.39371 29.0085 2.04586 27.4942 2.04586H22.358V1.10458H27.4942C29.2951 1.10458 30.707 1.53432 31.7301 2.39373C32.7532 3.25318 33.2648 4.43998 33.2648 5.93376C33.2648 7.07965 32.9579 8.02092 32.3849 8.79851C31.8747 9.49101 31.1534 9.98874 30.2501 10.3062C30.1391 10.3452 30.0254 10.3815 29.9089 10.4151L33.4897 15.4283H32.3028ZM30.4559 10.5944C31.3697 10.2568 32.1195 9.73339 32.6593 9.00073C33.2797 8.15883 33.6057 7.14497 33.6057 5.93376C33.6057 4.35348 33.0599 3.06553 31.9494 2.1327C30.8464 1.20618 29.3473 0.763672 27.4942 0.763672H22.0171V2.38676H27.4942C28.9591 2.38676 30.0375 2.72321 30.7748 3.33058C31.4825 3.93026 31.8597 4.78917 31.8597 5.93373C31.8597 7.09976 31.4818 7.95826 30.7748 8.55733C30.0401 9.16264 28.9637 9.4807 27.4942 9.4807H22.0171V15.7691H23.7425V11.0832H27.4941C27.8589 11.0832 28.2757 11.0674 28.7289 11.0074L32.1273 15.7692H34.1521L30.4559 10.5944ZM15.208 4.3663C15.8964 5.52794 16.2379 6.83702 16.2379 8.26437C16.2379 9.64954 15.9175 10.894 15.2943 12.0114C14.6725 13.1265 13.8126 14.0285 12.699 14.7138C11.671 15.3464 10.5537 15.7039 9.32123 15.8228V18.5295H7.57537V15.8233C6.32462 15.705 5.18874 15.3481 4.17604 14.713C3.06301 14.0278 2.2039 13.1258 1.58226 12.0112C0.957312 10.8906 0.65918 9.64544 0.65918 8.26422C0.65918 6.86067 0.978687 5.55089 1.66853 4.38675C2.35398 3.23006 3.27775 2.32784 4.47617 1.66418C5.65566 0.9997 6.98216 0.65918 8.44851 0.65918C9.89577 0.65918 11.2198 1.00025 12.4156 1.64086L12.4221 1.64431C13.6012 2.30892 14.523 3.23157 15.2066 4.36388L15.208 4.3663ZM11.5337 3.0973C10.6037 2.57455 9.57736 2.30288 8.44851 2.30288C7.29818 2.30288 6.27148 2.57508 5.34171 3.09806C4.41351 3.62017 3.70055 4.33311 3.17839 5.24208L3.17569 5.24677C2.63763 6.14992 2.38474 7.15236 2.38474 8.26437C2.38474 9.33828 2.61846 10.3033 3.09894 11.1682L3.10047 11.171C3.58382 12.0603 4.23898 12.7544 5.09161 13.297C5.84544 13.7767 6.67421 14.0744 7.59613 14.1764V10.5221H9.28062V14.1764C10.1889 14.0771 11.0151 13.7945 11.7647 13.3175C12.6173 12.7749 13.2724 12.0808 13.7558 11.1914C14.2401 10.3003 14.492 9.33315 14.492 8.26437C14.492 7.15756 14.2211 6.15297 13.6997 5.24443C13.156 4.33267 12.4414 3.61907 11.5337 3.0973Z" fill="#171717"/>
</svg>
